<?xml version="1.0" encoding="UTF-8" standalone="no"?>
<svg
   viewBox="0 0 1000 1000.0001"
   version="1.1"
   id="svg980"
   width="1000"
   height="1000.0001"
   xmlns="http://www.w3.org/2000/svg"
   xmlns:svg="http://www.w3.org/2000/svg">
  <defs
     id="defs984" />
  <ellipse
     cx="499.99969"
     cy="499.89008"
     style="fill:#ffffff;stroke-width:20.8333"
     id="circle968"
     rx="250"
     ry="249.99976" />
  <path
     d="M 66.987242,750.00023 A 500,499.99952 0 1 0 249.99974,66.988431 500,499.99952 0 0 0 66.987242,750.00023 Z M 716.50594,375.00063 a 249.99999,249.99976 0 1 1 -341.5062,-91.5061 249.99999,249.99976 0 0 1 341.5062,91.5061 z"
     style="fill:none;stroke-width:20.8333"
     id="path970" />
  <path
     d="m 499.99974,250.00083 h 432.9416 a 499.87291,499.87243 0 0 0 -865.914498,0.06 l 216.470798,374.9392 0.1938,-0.05 a 249.69166,249.69143 0 0 1 216.3083,-374.9496 z"
     style="fill:#f29900;stroke-width:20.8333"
     id="path972" />
  <ellipse
     cx="499.99969"
     cy="500.00067"
     style="fill:#fbbc04;stroke-width:20.8333"
     id="circle974"
     rx="197.91667"
     ry="197.91647" />
  <path
     d="M 716.48514,625.06083 500.01434,1000 a 499.875,499.87452 0 0 0 432.902,-749.93467 h -432.9395 l -0.052,0.1938 a 249.68749,249.68726 0 0 1 216.5604,374.8017 z"
     style="fill:#fdd663;stroke-width:20.8333"
     id="path976" />
  <path
     d="M 283.51224,625.06503 67.041442,250.12583 A 499.875,499.87452 0 0 0 500.05184,1000 l 216.4708,-374.93917 -0.1396,-0.1417 a 249.69166,249.69143 0 0 1 -432.8708,0.1459 z"
     style="fill:#fbbc04;stroke-width:20.8333"
     id="path978" />
</svg>
