<?xml version="1.0" encoding="UTF-8" standalone="no"?>
<svg
   viewBox="1 1 176 176"
   version="1.1"
   id="svg1276"
   width="176"
   height="176"
   xmlns:xlink="http://www.w3.org/1999/xlink"
   xmlns="http://www.w3.org/2000/svg"
   xmlns:svg="http://www.w3.org/2000/svg">
  <defs
     id="defs1142">
    <circle
       id="a"
       cy="96"
       cx="96"
       r="88" />
    <linearGradient
       id="a-3"
       gradientUnits="userSpaceOnUse"
       x1="34.908699"
       x2="7.6322398"
       y1="61.028999"
       y2="13.7847"
       gradientTransform="matrix(2.7937792,0,0,2.7938149,1.0000059,1.0000022)">
      <stop
         offset="0"
         stop-color="#1e8e3e"
         id="stop1110" />
      <stop
         offset="1"
         stop-color="#34a853"
         id="stop1112" />
    </linearGradient>
    <linearGradient
       id="b-6"
       gradientUnits="userSpaceOnUse"
       x1="26.904301"
       x2="54.180801"
       y1="63.0788"
       y2="15.8345"
       gradientTransform="matrix(2.7937792,0,0,2.7938149,1.0000059,1.0000022)">
      <stop
         offset="0"
         stop-color="#fcc934"
         id="stop1115" />
      <stop
         offset="1"
         stop-color="#fbbc04"
         id="stop1117" />
    </linearGradient>
    <linearGradient
       id="c"
       gradientUnits="userSpaceOnUse"
       x1="4.2214499"
       x2="58.774502"
       y1="19.6884"
       y2="19.6884"
       gradientTransform="matrix(2.7937792,0,0,2.7938149,1.0000059,1.0000022)">
      <stop
         offset="0"
         stop-color="#d93025"
         id="stop1120" />
      <stop
         offset="1"
         stop-color="#ea4335"
         id="stop1122" />
    </linearGradient>
  </defs>
  <clipPath
     id="b">
    <use
       width="100%"
       overflow="visible"
       xlink:href="#a"
       height="100%"
       id="use1144" />
  </clipPath>
  <radialGradient
     id="j"
     gradientUnits="userSpaceOnUse"
     cy="55.948002"
     cx="668.17999"
     gradientTransform="translate(-576)"
     r="84.078003">
    <stop
       stop-color="#3E2723"
       stop-opacity=".2"
       offset="0"
       id="stop1212" />
    <stop
       stop-color="#3E2723"
       stop-opacity="0"
       offset="1"
       id="stop1214" />
  </radialGradient>
  <radialGradient
     id="m"
     gradientUnits="userSpaceOnUse"
     cy="48.52"
     cx="597.88"
     gradientTransform="translate(-576)"
     r="78.043999">
    <stop
       stop-color="#3E2723"
       stop-opacity=".2"
       offset="0"
       id="stop1233" />
    <stop
       stop-color="#3E2723"
       stop-opacity="0"
       offset="1"
       id="stop1235" />
  </radialGradient>
  <radialGradient
     id="n"
     gradientUnits="userSpaceOnUse"
     cy="96.138"
     cx="671.84003"
     gradientTransform="translate(-576)"
     r="87.870003">
    <stop
       stop-color="#263238"
       stop-opacity=".2"
       offset="0"
       id="stop1240" />
    <stop
       stop-color="#263238"
       stop-opacity="0"
       offset="1"
       id="stop1242" />
  </radialGradient>
  <radialGradient
     id="o"
     gradientUnits="userSpaceOnUse"
     cy="32.014"
     cx="34.285999"
     gradientTransform="translate(-7,-7)"
     r="176.75">
    <stop
       stop-color="#fff"
       stop-opacity=".1"
       offset="0"
       id="stop1269" />
    <stop
       stop-color="#fff"
       stop-opacity="0"
       offset="1"
       id="stop1271" />
  </radialGradient>
  <path
     d="m 89.001249,132.99826 c 24.301691,0 44.002021,-19.70059 44.002021,-44.00259 0,-24.301999 -19.70033,-44.002584 -44.002021,-44.002584 -24.301688,0 -44.002021,19.700585 -44.002021,44.002584 0,24.302 19.700333,44.00259 44.002021,44.00259 z"
     fill="#ffffff"
     id="path1125"
     style="stroke-width:2.7938" />
  <path
     d="M 50.894381,111.00674 12.793603,45.01348 C 5.0680498,58.390266 1.0005309,73.565431 1.0000001,89.012992 0.99946915,104.46055 5.0659545,119.636 12.790558,133.01334 20.51519,146.39068 31.625686,157.49861 45.004815,165.22016 58.383944,172.94142 73.560032,177.00419 89.007396,177 l 38.100724,-65.99326 v -0.0112 c -3.85905,6.6923 -9.41225,12.25032 -16.10111,16.115 -6.68887,3.86469 -14.277329,5.89998 -22.002408,5.9011 -7.725079,0.001 -15.31438,-2.03166 -22.004363,-5.89467 -6.689705,-3.86273 -12.244855,-9.41907 -16.105858,-16.10998 z"
     fill="url(#a)"
     id="path1127"
     style="fill:url(#a-3);stroke-width:2.7938" />
  <path
     d="M 127.10532,111.00395 89.004881,176.9972 c 15.447369,0.002 30.622889,-4.06276 44.000899,-11.78626 13.37803,-7.72322 24.48693,-18.83255 32.20978,-32.21101 C 172.93812,119.62119 177.00251,104.44519 177,88.997626 176.997,73.550065 172.9275,58.375738 165.19991,44.999791 H 88.998456 l -0.0084,0.0056 c 7.725079,-0.0028 15.314944,2.026634 22.006314,5.886848 6.69138,3.860493 12.24821,9.414597 16.11173,16.104387 3.86351,6.68951 5.89738,14.278629 5.89738,22.003528 -2.8e-4,7.725177 -2.03471,15.314016 -5.8985,22.003526 z"
     fill="url(#b)"
     id="path1129"
     style="fill:url(#b-6);stroke-width:2.7938" />
  <path
     d="m 89.001249,123.84069 c 19.238801,0 34.835071,-15.59647 34.835071,-34.835521 0,-19.239047 -15.59627,-34.835519 -34.835071,-34.835519 -19.238801,0 -34.834794,15.596472 -34.834794,34.835519 0,19.239051 15.595993,34.835521 34.834794,34.835521 z"
     fill="#1a73e8"
     id="path1131"
     style="stroke-width:2.7938" />
  <path
     d="M 89.001529,45.002585 H 165.20298 C 157.48098,31.623564 146.37291,20.513316 132.99545,12.789089 119.61799,5.0648891 104.44247,0.99891062 88.995103,1.0000002 73.547739,1.0010897 58.373048,5.0692195 44.996713,12.795347 31.620099,20.521446 20.513681,31.633342 12.793771,45.013201 l 38.10061,65.993259 0.01118,0.006 c -3.865757,-6.6888 -5.902422,-14.276805 -5.904936,-22.001982 -0.0025,-7.725178 2.029401,-15.314856 5.890962,-22.005483 3.861282,-6.690628 9.416712,-12.246688 16.106696,-16.108858 6.690263,-3.862449 14.279564,-5.894949 22.004643,-5.893273 z"
     fill="url(#c)"
     id="path1133"
     style="fill:url(#c);stroke-width:2.7938" />
</svg>
