<svg xmlns="http://www.w3.org/2000/svg" xmlns:xlink="http://www.w3.org/1999/xlink" version="1.1" id="Layer_1" x="0px" y="0px" width="100px" height="100px" viewBox="0 0 100 100" enable-background="new 0 0 100 100" xml:space="preserve">
<g>
	<path fill="none" d="M9.29,85.522c0.761,0.755,1.905,0.843,2.556,0.198l33.506-33.313c0.652-0.646,0.563-1.783-0.198-2.54   c-0.761-0.756-1.904-0.844-2.555-0.197L9.092,82.983C8.441,83.627,8.529,84.767,9.29,85.522z"/>
	<path fill="none" d="M49.756,56.789L16.251,90.1c-0.651,0.646-0.562,1.784,0.198,2.543c0.76,0.753,1.905,0.844,2.556,0.195   l33.508-33.312c0.65-0.646,0.561-1.784-0.197-2.541C51.553,56.23,50.409,56.14,49.756,56.789z"/>
</g>
<path fill="none" d="M80.477,80.008c-3.541,3.521-3.541,9.23,0,12.753c3.545,3.521,9.285,3.521,12.83,0  c3.541-3.522,3.541-9.234,0-12.753C89.762,76.485,84.021,76.485,80.477,80.008z"/>
<path fill="none" d="M78.985,78.521c3.705-3.687,3.705-9.661,0-13.347L42.586,28.992c-3.707-3.687-9.718-3.687-13.425,0  c-3.707,3.686-3.707,9.661,0,13.347l36.394,36.183C69.267,82.206,75.274,82.206,78.985,78.521z M30.95,42.377  c-3.553-3.532-3.817-8.992-0.594-12.197c3.224-3.206,8.716-2.941,12.269,0.59l34.871,34.666c3.551,3.533,3.819,8.991,0.596,12.199  c-3.227,3.205-8.717,2.938-12.27-0.594L30.95,42.377z"/>
<path d="M78.092,77.636c3.224-3.208,2.955-8.666-0.596-12.199L42.625,30.771c-3.553-3.531-9.045-3.796-12.269-0.59  c-3.224,3.205-2.959,8.665,0.594,12.197l34.872,34.665C69.375,80.574,74.865,80.841,78.092,77.636z"/>
<path d="M21.046,36.941l58.384,58.04c4.448,4.423,11.662,4.423,16.11,0c4.447-4.421,4.447-11.592,0-16.016l-58.383-58.04  c0.712-5.508-1.041-11.27-5.296-15.5c-5.107-5.078-12.434-6.584-18.872-4.549c3.752,3.727,6.652,6.679,7.565,7.585  c3.262,3.244,4.035,7.733,1.728,10.026l-3.684,3.663c-2.307,2.293-6.823,1.525-10.085-1.718c-0.911-0.907-3.88-3.789-7.631-7.521  c-2.047,6.402-0.532,13.685,4.576,18.763C9.713,35.905,15.507,37.648,21.046,36.941z M93.307,92.761  c-3.545,3.521-9.285,3.521-12.83,0c-3.541-3.522-3.541-9.232,0-12.753c3.545-3.522,9.285-3.522,12.83,0  C96.848,83.526,96.848,89.238,93.307,92.761z M29.162,42.339c-3.707-3.686-3.707-9.661,0-13.347c3.707-3.687,9.718-3.687,13.425,0  l36.399,36.183c3.705,3.686,3.705,9.66,0,13.347c-3.711,3.685-9.719,3.685-13.43,0L29.162,42.339z"/>
<path d="M20.896,98.602L50.339,69.33l-3.843-3.822l-27.491,27.33c-0.651,0.648-1.795,0.558-2.556-0.195  c-0.76-0.759-0.849-1.897-0.198-2.543l27.49-27.33l-4.405-4.381L11.846,85.721c-0.65,0.645-1.794,0.557-2.556-0.198  c-0.761-0.756-0.849-1.896-0.198-2.539l27.49-27.332l-3.844-3.821L3.295,81.103c-2.851,2.832-1.22,9.046,3.641,13.877  C11.796,99.813,18.045,101.435,20.896,98.602z"/>
<polygon points="64.886,44.862 74.778,35.026 83.002,32.835 98.928,10.264 92.153,3.526 69.45,19.361 67.244,27.537 57.351,37.373   "/>
</svg>